<?xml version="1.0" encoding="UTF-8" standalone="no"?>
<!DOCTYPE svg PUBLIC "-//W3C//DTD SVG 1.1//EN" "http://www.w3.org/Graphics/SVG/1.1/DTD/svg11.dtd">
<svg width="100%" height="100%" viewBox="0 0 1343 321" version="1.1" xmlns="http://www.w3.org/2000/svg" xmlns:xlink="http://www.w3.org/1999/xlink" xml:space="preserve" xmlns:affinity="https://www.affinity.studio/" style="fill-rule:evenodd;clip-rule:evenodd;stroke-linejoin:round;stroke-miterlimit:2;">
    <g id="Background" transform="matrix(1.311523,0,0,1.311523,0,0)">
        <path d="M441.5,0L565.5,0C566.285,0.15 565.719,0.866 566.515,1.018C566.595,1.033 566.563,1.018 571.513,1.149C601.631,1.949 601.472,3.186 631.487,3.883C632.493,4.066 633.5,4.25 634.507,4.433C693.084,6.736 830.219,25.493 894.539,40.319C926.149,47.606 929.962,45.273 939.705,57.359C949.864,69.961 938.89,89.062 939.335,93.511C939.58,95.96 964.616,102.56 999.549,114.343C1017.079,120.255 1019.716,119.313 1023.999,128.5L1023.999,129.5C1023.853,129.956 1023.112,130.041 1022.966,130.497C1022.75,131.169 1023.01,131.909 1023,132.615C1022.882,140.612 1015.074,141.478 970.607,164.715C955.882,172.41 959.555,176.987 964.172,186.676C976.566,212.684 977.176,212.359 978.023,214.713C982.028,225.842 992.176,235.215 977.5,243.999L969.5,243.999C966.917,242.958 967.11,242.723 964.384,241.951C962.32,241.365 962.434,241.433 960.391,240.836C959.275,240.51 950.956,238.077 946.388,236.92C912.253,228.277 899.776,223.964 884.534,220.338C870.317,216.956 874.409,205.543 873.473,204.527C871.89,202.808 790.362,187.828 770.437,184.945C650.543,167.599 615.106,168.515 572.494,165.722L568.493,165.598C502.983,164.527 503.106,164.421 437.509,165.622C436.17,165.789 434.83,165.956 433.491,166.123C338.614,167.618 198.461,189.409 152.598,199.992C144.464,201.868 153.71,207.896 147.164,216.229C145.051,218.919 144.782,219.089 106.444,229.278C102.374,230.36 55.929,242.705 55.586,242.85C55.101,243.056 54.985,243.793 54.5,243.999L45.5,243.999C30.027,232.806 43.67,223.317 49.942,205.742C50.321,204.681 60.105,185.483 61,183.727C70.033,166.004 47.438,163.785 32.616,154.315C23.474,148.475 6.029,143.778 0,134.5L0,126.5C3.09,123.711 2.098,122.805 5.579,120.65C7.334,119.564 50.241,105.808 54.474,104.418C67.896,100.009 68.48,99.863 68.23,98.525C64.947,80.929 53.954,66.24 72.356,51.311C74.01,49.969 77.784,46.907 97.644,42.999C208.959,21.094 221.494,19.521 324.586,7.927C346.618,5.449 367.735,4.595 371.495,4.443C372.501,4.257 373.508,4.072 374.515,3.886C404.558,3.134 404.433,2.027 434.491,1.156C438.209,1.049 438.149,1.394 440.487,1.008C441.27,0.879 440.691,0.134 441.5,0Z" style="fill:rgb(21,86,121);fill-opacity:1;"/>
        <path d="M550.506,10.036C731.252,12.974 919.252,52.94 927.417,58.621C937.389,65.559 934.418,69.39 920.201,129.433C906.797,186.042 907.523,195.155 896.573,197.769C883.465,200.899 884.208,191.549 730.465,169.737C588.547,149.603 395.326,149.99 247.549,173.75C239.33,175.072 191.182,181.302 122.558,196.773C98.694,202.154 100.173,189.798 94.025,163.611C73.186,74.851 70.142,69.92 74.759,62.674C79.116,55.836 86.257,55.833 106.411,51.14C150.284,40.923 294.216,15.147 425.517,10.937C501.365,8.504 507.269,9.009 550.506,10.036Z" style="fill:rgb(63,153,128);"/>
        <path d="M549.498,67.502C549.845,67.538 550.192,67.575 550.539,67.611C551.664,66.476 558.029,60.058 568.558,58.984C599.134,55.865 604.13,74.526 604.751,68.58C605.722,59.282 609.53,61.055 628.517,62.307C633.06,62.607 632.953,64.139 637.43,63.166C650.467,60.331 659.542,67.631 660.428,67.246C661.402,66.823 661.265,64.069 684.446,66.885C692.029,67.806 689.177,76.101 691.444,76.042C692.732,76.008 692.848,72.776 693.524,71.515C696.053,66.797 706.83,69.203 707.523,69.273C713.609,69.885 715.246,72.589 719.894,65.781C731.278,49.105 766.505,54.585 771.665,73.454C776.946,92.764 757.65,102.417 756.864,103C750.864,107.448 753.937,111.961 746.515,112.556C743.896,112.766 746.874,115.5 747.049,115.768C759.06,134.244 726.157,147.593 720.511,127.497C716.953,114.834 729.497,110.899 728.633,108.445C723.529,93.941 739.891,88.254 733.572,87.306C719.376,85.176 719.276,86.665 718.731,87.628C703.045,115.372 703.33,145.353 668.495,142.56C651.664,141.211 656.536,134.288 656.941,123.466C657.029,121.103 655.624,122.046 639.558,120.189C629.45,119.021 638.174,92.436 636.026,88.802C633.149,83.932 632.615,101.402 631.782,112.523C631.049,122.32 624.76,118.446 601.493,117.709C580.986,117.06 581.146,114.82 579.446,115.328C554.637,122.741 550.426,106.774 547.774,111.647C544.714,117.272 537.064,115.308 534.508,115.237C520.676,114.855 520.71,113.26 519.607,113.727C513.112,116.472 491.274,114.72 490.559,114.372C486.721,112.504 486.718,115.041 482.482,115.092C469.959,115.243 462.945,116.363 460.996,112.237C460.259,110.678 457.908,47.348 459.99,43.813C461.398,41.424 462.14,40.163 494.5,40.561C503.685,40.674 502.428,49.817 503.323,56.573C504.932,68.714 505.016,46.156 508.524,42.523C510.414,40.566 510.996,39.963 542.493,40.912C552.004,41.199 549.35,47.677 549.498,67.502Z" style="fill:rgb(22,86,121);"/>
        <path d="M365.232,107.731C361.748,107.774 364.283,111.385 354.241,118.117C344.642,124.552 331.503,123.946 329.471,123.852C313.822,123.129 308.213,110.429 309.078,118.514C309.964,126.789 302.589,126.419 287.451,128.026C277.71,129.06 278.603,117.145 277.55,107.494C277.103,103.397 275.502,104.589 271.425,105.17C268.022,105.654 270.031,107.414 271.741,123.479C272.38,129.482 269.958,130.602 250.437,133.016C240.109,134.294 242.927,128.042 233.959,71.435C231.631,56.74 238.668,59.384 253.455,57.21C265.577,55.428 263.881,63.835 265.331,75.522C266.29,83.248 269.738,80.481 272.636,79.87C275.479,79.27 273.793,77.896 271.945,62.448C270.928,53.95 277.387,53.72 295.492,52.231C306.621,51.316 302.396,77.316 304.813,79.122C305.972,79.989 311.292,68.932 325.598,65.957C345.288,61.863 353.768,71.323 355.07,68.326C357.503,62.727 360.337,63.378 366.536,62.969C383.957,61.82 384.047,64.002 385.388,63.311C392.72,59.535 409.823,60.657 410.699,61.059C414.478,62.791 414.38,60.196 418.543,59.906C438.093,58.547 444.532,58.694 443.128,67.44C436.44,109.077 436.559,109.012 435.65,112.556C434.686,116.318 430.099,116.618 429.509,116.657C403.723,118.344 403.701,116.118 401.559,116.76C398.862,117.567 398.983,118.038 375.516,119.722C366.484,120.371 366.269,111.378 365.232,107.731Z" style="fill:rgb(22,86,121);"/>
        <path d="M525.498,59.977C525.432,60.24 524.821,59.383 524.755,59.646C523.869,63.187 526.098,63.468 516.659,104.541C515.203,110.877 513.022,108.973 506.5,108.911C499.474,108.844 493.451,110.218 492.704,106.46C488.153,83.555 487.994,83.662 484.109,60.645C481.454,44.917 482.62,68.784 482.655,69.502C482.808,72.624 484.469,106.617 482.572,108.577C482.299,108.859 466.925,110.785 466.341,107.526C466.111,106.239 465.06,54.15 464.966,49.509C464.92,47.216 466.021,46.352 493.492,46.702C496.351,46.739 496.518,48.012 501.796,81.454C502.436,85.505 504.032,106.728 505.668,89.529C506.462,81.185 511.723,52.66 512.313,49.465C512.844,46.582 513.943,46.492 537.497,46.928C537.563,46.93 543.762,45.974 543.701,49.497C543.623,54.057 542.954,92.896 542.282,106.487C542.18,108.538 542.582,109.309 540.485,109.321C528.407,109.39 525.428,109.36 525.458,106.501C525.497,102.823 525.614,102.898 526.38,60.542C526.086,60.353 525.792,60.165 525.498,59.977Z" style="fill:rgb(254,254,254);"/>
        <path d="M386.232,98.344C387.181,84.614 389.123,68.892 390.675,67.829C391.17,67.49 406.918,65.645 408.521,67.486C409.906,69.078 414.816,93.442 415.274,95.718C415.371,96.2 416.966,97.895 416.927,94.767C416.853,88.878 418.04,67.023 419.391,66.344C419.566,66.256 437.551,63.638 437.042,67.46C434.914,83.427 431.317,103.427 430.757,106.544C429.594,113.009 427.061,110.584 420.513,110.844C413.64,111.116 406.422,112.419 405.735,109.44C403.227,98.564 403.76,98.532 401.157,87.66C398.637,77.136 399.881,111.5 395.43,112.103C374.254,114.97 373.725,113.921 372.914,112.313C372.186,110.869 362.603,75.636 361.734,72.439C361.456,71.42 360.772,69.541 363.479,69.339C373.718,68.576 379.542,67.519 380.112,70.579C384.899,96.293 382.728,97.324 384.739,98.337C385.183,98.561 385.788,98.12 386.232,98.344Z" style="fill:rgb(254,254,254);"/>
        <path d="M298.961,82.451C302.682,118.544 303.818,119.827 301.434,120.253C285.998,123.007 285.511,121.857 285.209,120.594C283.831,114.823 284.577,97.904 280.505,98.024C279.064,98.066 263.426,98.525 262.839,101.553C262.265,104.515 267.912,124.139 263.595,124.91C254.876,126.468 248.606,127.439 248.177,125.645C248.04,125.071 239.026,67.131 239.984,65.896C240.384,65.379 243.007,64.851 254.47,63.236C260.087,62.445 257.604,65.992 259.994,81.434C260.604,85.375 259.809,87.979 266.437,87.029C277.736,85.41 280.97,85.572 280.672,82.487C278.733,62.444 276.605,60.379 280.559,59.921C288.879,58.958 296.151,57.434 296.499,60.5C297.005,64.96 297.651,71.515 297.746,72.474C298.244,77.524 298.254,77.407 298.961,82.451Z" style="fill:rgb(254,254,254);"/>
        <path d="M335.491,71.049C348.392,71.704 357.64,74.533 361.049,92.58C362.202,98.686 358.555,111.918 343.497,116.49C305.559,128.008 288.506,73.86 335.491,71.049Z" style="fill:rgb(254,254,254);"/>
        <path d="M576.468,83.052C577.487,82.934 578.518,82.934 579.536,82.816C590.321,81.565 574.496,72.715 569.669,79.6C568.008,81.97 566.026,81.66 553.528,81.193C549.178,81.03 551.743,65.432 573.513,64.77C608.524,63.706 600.981,91.738 600.902,93.527C600.207,109.234 601.816,109.184 601.643,110.535C601.46,111.96 586.531,111.871 584.701,109.356C581.956,105.584 580.845,108.037 578.368,109.226C569.932,113.274 553.234,110.859 550.816,101.41C546.051,82.792 574.908,83.217 576.468,83.052Z" style="fill:rgb(254,254,254);"/>
        <path d="M687.705,102.423C687.93,102.561 688.155,102.699 688.381,102.837C688.573,102.579 689.057,103.515 689.249,103.258C689.423,103.025 697.211,75.759 699.584,74.876C700.115,74.678 713.967,75.94 714.526,76.466C717.3,79.075 716.206,80.202 696.716,120.612C693.371,127.548 687.916,139.935 664.414,135.899C664.163,135.856 662.195,135.518 662.312,133.5C662.359,132.687 662.893,123.513 664.507,123.568C665.19,123.591 672.705,125.742 676.25,120.347C679.403,115.548 663.795,73.213 666.584,71.667C666.88,71.503 682.924,72.154 684.142,73.73C685.317,75.249 684.781,75.404 687.54,97.494C687.589,97.885 687.552,97.859 687.705,102.423Z" style="fill:rgb(254,254,254);"/>
        <path d="M609.956,80.526C610.156,77.792 609.942,67.547 612.486,67.32C613.607,67.22 613.505,67.429 626.527,68.295C629.997,68.526 628.058,72.732 628.282,73.594C628.35,73.857 628.73,74.844 631.505,72.507C636.584,68.231 658.716,63.059 660.471,83.502C660.738,86.611 658.804,110.573 658.147,114.371C657.933,115.602 657.413,115.866 642.531,114.297C636.152,113.625 648.601,85.526 637.542,82.323C621.596,77.705 629.321,111.525 624.437,113.056C623.777,113.263 609.949,112.104 609.323,111.876C606.967,111.017 607.959,109.969 609.956,80.526Z" style="fill:rgb(254,254,254);"/>
        <path d="M742.564,106.049C735.937,104.871 731.924,105.635 734.797,99.631C736.245,96.604 737.896,93.989 742.655,89.667C758.839,74.968 745.831,73.284 744.509,73.24C738.731,73.048 739.526,75.033 737.041,80.296C736.135,82.214 720.752,80.91 721.461,77.496C726.247,54.458 758.079,60.362 764.6,72.443C773.324,88.607 750.948,98.728 748.449,102.463C746.363,105.58 746.39,106.03 742.564,106.049Z" style="fill:rgb(254,254,254);"/>
        <path d="M342.94,95.516C342.756,96.698 340.903,108.588 330.693,104.094C321.457,100.028 325.402,78.754 338.271,84.941C342.23,86.844 342.865,94.594 342.94,95.516Z" style="fill:rgb(21,86,121);"/>
        <path d="M734.502,115.066C753.112,117.456 737.469,140.605 727.728,128.324C725.58,125.617 723.872,116.304 734.502,115.066Z" style="fill:rgb(254,254,254);"/>
        <path d="M665.027,108.461C665.043,107.739 665.367,93.269 667.096,99.675C671.772,117.003 669.963,117.915 668.508,117.837C662.19,117.498 664.28,114.686 665.027,108.461Z" style="fill:rgb(63,152,128);"/>
        <path d="M572.534,99.061C569.837,98.361 569.815,98.448 569.621,98.305C565.682,95.416 572.67,92.693 580.493,92.843C581.301,92.858 584.927,98.057 572.534,99.061Z" style="fill:rgb(21,86,121);"/>
        <path d="M336.918,94.471C336.385,101.599 332.227,98.145 331.88,95.441C331.821,94.976 331.138,89.649 334.552,90.22C336.215,90.498 336.851,94.088 336.918,94.471Z" style="fill:rgb(63,153,129);"/>
        <path d="M437.509,165.622C436.17,165.789 434.83,165.956 433.491,166.123C434.83,165.956 436.17,165.789 437.509,165.622Z" style="fill:rgb(18,80,115);fill-opacity:0.37;"/>
        <path d="M568.493,165.598L572.494,165.722C570.447,165.93 570.527,165.935 568.493,165.598Z" style="fill:rgb(18,80,115);fill-opacity:0.4;"/>
        <path d="M374.515,3.886C373.508,4.072 372.501,4.257 371.495,4.443C372.501,4.257 373.508,4.072 374.515,3.886Z" style="fill:rgb(19,83,115);fill-opacity:0.36;"/>
        <path d="M631.487,3.883C632.493,4.066 633.5,4.25 634.507,4.433C633.5,4.25 632.493,4.066 631.487,3.883Z" style="fill:rgb(19,83,114);fill-opacity:0.37;"/>
    </g>
</svg>
