<svg width="108" height="108" viewBox="0 0 108 108" fill="none" xmlns="http://www.w3.org/2000/svg">
<g filter="url(#filter0_d_160_4411)">
<path d="M91.6898 0H16.3102C9.51148 0 4 5.51148 4 12.3102V87.6898C4 94.4885 9.51148 100 16.3102 100H91.6898C98.4885 100 104 94.4885 104 87.6898V12.3102C104 5.51148 98.4885 0 91.6898 0Z" fill="white"/>
<path d="M90.4724 6.01227H17.5354C13.3806 6.01227 10.0125 9.3804 10.0125 13.5352V86.4722C10.0125 90.627 13.3806 93.9951 17.5354 93.9951H90.4724C94.6272 93.9951 97.9953 90.627 97.9953 86.4722V13.5352C97.9953 9.3804 94.6272 6.01227 90.4724 6.01227Z" fill="#F27C70"/>
<mask id="path-3-outside-1_160_4411" maskUnits="userSpaceOnUse" x="33.9529" y="27.3162" width="39" height="45" fill="black">
<rect fill="white" x="33.9529" y="27.3162" width="39" height="45"/>
<path d="M54.5321 68.3162V62.1676H38.7076V55.6271L51.5926 32.1843H64.1591V55.0882H68.1275V62.1676H64.1591V68.3162H54.5321ZM45.836 59.0076L43.3374 55.0882H54.5321V38.3329L56.4183 38.8718L45.836 59.0076Z"/>
</mask>
<path d="M54.5321 68.3162V62.1676H38.7076V55.6271L51.5926 32.1843H64.1591V55.0882H68.1275V62.1676H64.1591V68.3162H54.5321ZM45.836 59.0076L43.3374 55.0882H54.5321V38.3329L56.4183 38.8718L45.836 59.0076Z" fill="white"/>
<path d="M54.5321 68.3162H50.5321V72.3162H54.5321V68.3162ZM54.5321 62.1676H58.5321V58.1676H54.5321V62.1676ZM38.7076 62.1676H34.7076V66.1676H38.7076V62.1676ZM38.7076 55.6271L35.2022 53.7005L34.7076 54.6003V55.6271H38.7076ZM51.5926 32.1843V28.1843H49.2268L48.0872 30.2576L51.5926 32.1843ZM64.1591 32.1843H68.1591V28.1843H64.1591V32.1843ZM64.1591 55.0882H60.1591V59.0882H64.1591V55.0882ZM68.1275 55.0882H72.1275V51.0882H68.1275V55.0882ZM68.1275 62.1676V66.1676H72.1275V62.1676H68.1275ZM64.1591 62.1676V58.1676H60.1591V62.1676H64.1591ZM64.1591 68.3162V72.3162H68.1591V68.3162H64.1591ZM45.836 59.0076L42.4631 61.1578L46.1693 66.9716L49.3768 60.8685L45.836 59.0076ZM43.3374 55.0882V51.0882H36.0437L39.9645 57.2385L43.3374 55.0882ZM54.5321 55.0882V59.0882H58.5321V55.0882H54.5321ZM54.5321 38.3329L55.631 34.4868L50.5321 33.0299V38.3329H54.5321ZM56.4183 38.8718L59.9591 40.7326L62.248 36.3773L57.5172 35.0257L56.4183 38.8718ZM54.5321 68.3162H58.5321V62.1676H54.5321H50.5321V68.3162H54.5321ZM54.5321 62.1676V58.1676H38.7076V62.1676V66.1676H54.5321V62.1676ZM38.7076 62.1676H42.7076V55.6271H38.7076H34.7076V62.1676H38.7076ZM38.7076 55.6271L42.213 57.5538L55.098 34.111L51.5926 32.1843L48.0872 30.2576L35.2022 53.7005L38.7076 55.6271ZM51.5926 32.1843V36.1843H64.1591V32.1843V28.1843H51.5926V32.1843ZM64.1591 32.1843H60.1591V55.0882H64.1591H68.1591V32.1843H64.1591ZM64.1591 55.0882V59.0882H68.1275V55.0882V51.0882H64.1591V55.0882ZM68.1275 55.0882H64.1275V62.1676H68.1275H72.1275V55.0882H68.1275ZM68.1275 62.1676V58.1676H64.1591V62.1676V66.1676H68.1275V62.1676ZM64.1591 62.1676H60.1591V68.3162H64.1591H68.1591V62.1676H64.1591ZM64.1591 68.3162V64.3162H54.5321V68.3162V72.3162H64.1591V68.3162ZM45.836 59.0076L49.2089 56.8574L46.7103 52.938L43.3374 55.0882L39.9645 57.2385L42.4631 61.1578L45.836 59.0076ZM43.3374 55.0882V59.0882H54.5321V55.0882V51.0882H43.3374V55.0882ZM54.5321 55.0882H58.5321V38.3329H54.5321H50.5321V55.0882H54.5321ZM54.5321 38.3329L53.4332 42.179L55.3195 42.7179L56.4183 38.8718L57.5172 35.0257L55.631 34.4868L54.5321 38.3329ZM56.4183 38.8718L52.8775 37.0109L42.2952 57.1468L45.836 59.0076L49.3768 60.8685L59.9591 40.7326L56.4183 38.8718Z" fill="#600707" mask="url(#path-3-outside-1_160_4411)"/>
<path d="M90.4722 94.9044C70.0754 95.1148 47.4239 95.0397 26.9069 94.8894C25.261 94.8443 20.5789 94.8518 18.9631 94.8142L17.6404 94.7992C15.2129 94.7992 12.7704 93.7094 11.2372 91.8231C9.98968 90.335 9.30578 88.396 9.31329 86.4721L9.82434 44.0927C9.97465 35.3673 9.95962 23.6508 10.0122 14.963C9.52372 10.2809 12.6276 5.99713 17.5351 5.93701C31.604 5.96707 67.5051 6.0272 81.1005 6.00465C82.7463 6.03471 87.4284 5.9821 89.0443 6.00465C93.7113 5.50863 97.9725 8.65007 97.9951 13.5276C98.0026 32.4063 98.3709 58.2142 98.6414 77.0929C98.6564 79.4602 98.7466 84.0146 98.7692 86.3594C98.9571 90.8837 95.0265 94.942 90.4722 94.8969V94.9044ZM90.4722 93.0781C94.0946 93.1683 97.2811 89.9893 97.221 86.3594L97.236 85.0367C97.236 83.4209 97.3337 78.7839 97.3488 77.0929C97.6193 58.2217 97.9801 32.4063 97.9951 13.5276C98.0327 9.94272 95.2445 6.62091 91.6822 6.10987C90.2091 5.91447 87.9094 6.03471 86.3913 6.00465C83.0996 6.03471 63.6572 5.9821 59.907 6.00465L17.5276 6.07229C12.7403 6.05726 9.47863 10.326 10.0122 14.9555C10.0122 23.6283 10.0949 35.3673 10.2001 44.0852L10.7112 86.4646C10.7337 88.0729 11.3274 89.6436 12.3796 90.8461C13.6873 92.3792 15.6563 93.2059 17.6479 93.1758L18.9706 93.1608L21.616 93.1383C43.9819 92.8978 68.1965 92.8903 90.4797 93.0706L90.4722 93.0781Z" fill="#600707"/>
<path d="M95.2222 24.2446C95.1395 22.035 95.0719 19.818 95.0268 17.6085C95.1095 15.4215 94.5684 13.2721 92.9601 11.7539C91.4269 10.2058 89.3001 9.6797 87.1732 9.85255L80.5371 9.94274C62.8458 10.1607 45.1546 10.1607 27.4633 9.94274L20.8272 9.85255C18.7003 9.6797 16.566 10.2058 15.0403 11.7539C13.4396 13.2721 12.8909 15.4215 12.9736 17.6085C12.921 19.818 12.8533 22.035 12.7707 24.2446C12.688 22.035 12.6204 19.818 12.5753 17.6085C12.3648 15.3689 12.8684 12.9188 14.5067 11.2429C16.0775 9.4843 18.5275 8.76282 20.8197 8.86803L27.4558 8.77033C45.1471 8.55239 62.8383 8.55239 80.5296 8.77033L87.1657 8.86052C89.4579 8.74779 91.9154 9.47678 93.4786 11.2279C95.1095 12.9038 95.628 15.3538 95.4101 17.5934C95.3575 19.8029 95.2898 22.02 95.2147 24.2295L95.2222 24.2446Z" fill="white"/>
</g>
<defs>
<filter id="filter0_d_160_4411" x="0" y="0" width="108" height="108" filterUnits="userSpaceOnUse" color-interpolation-filters="sRGB">
<feFlood flood-opacity="0" result="BackgroundImageFix"/>
<feColorMatrix in="SourceAlpha" type="matrix" values="0 0 0 0 0 0 0 0 0 0 0 0 0 0 0 0 0 0 127 0" result="hardAlpha"/>
<feOffset dy="4"/>
<feGaussianBlur stdDeviation="2"/>
<feComposite in2="hardAlpha" operator="out"/>
<feColorMatrix type="matrix" values="0 0 0 0 0.0823529 0 0 0 0 0.337255 0 0 0 0 0.47451 0 0 0 0.5 0"/>
<feBlend mode="normal" in2="BackgroundImageFix" result="effect1_dropShadow_160_4411"/>
<feBlend mode="normal" in="SourceGraphic" in2="effect1_dropShadow_160_4411" result="shape"/>
</filter>
</defs>
</svg>
